<?xml version="1.0" encoding="utf-8"?>
<!-- Generator: Adobe Illustrator 16.0.0, SVG Export Plug-In . SVG Version: 6.00 Build 0)  -->
<!DOCTYPE svg PUBLIC "-//W3C//DTD SVG 1.1//EN" "http://www.w3.org/Graphics/SVG/1.1/DTD/svg11.dtd">
<svg version="1.1" id="Layer_1" xmlns="http://www.w3.org/2000/svg" xmlns:xlink="http://www.w3.org/1999/xlink" x="0px" y="0px"
	 width="40px" height="40px" viewBox="0 0 40 40" enable-background="new 0 0 40 40" xml:space="preserve">
<circle fill="#78C6D1" cx="20" cy="20" r="20"/>
<g>
	<path fill="#FFFFFF" d="M16.327,17.621c0.002,0.242,0.015,0.484,0.044,0.725c0.072,0.606,0.236,1.201,0.487,1.758
		c0.652,1.455,1.886,2.618,3.378,3.181c0.546,0.208,1.122,0.333,1.703,0.374c0.824,0.061,1.657-0.051,2.436-0.322
		c1.568-0.549,2.893-1.767,3.546-3.299c0.307-0.719,0.48-1.487,0.5-2.27c0.02-0.828-0.131-1.658-0.441-2.423
		c-0.646-1.596-1.98-2.869-3.605-3.437c-0.549-0.192-1.127-0.306-1.709-0.332c-0.582-0.027-1.167,0.028-1.731,0.166
		c-0.572,0.141-1.125,0.364-1.632,0.664c-0.986,0.582-1.798,1.447-2.319,2.467c-0.276,0.544-0.47,1.133-0.571,1.735
		c-0.041,0.24-0.063,0.48-0.078,0.723C16.33,17.477,16.33,17.477,16.327,17.621z M9.389,28.747c0.008-0.071,0.007-0.091,0.025-0.16
		c0.037-0.137,0.109-0.246,0.202-0.349l5.958-5.965c-0.084-0.123-0.165-0.249-0.242-0.376c-0.07-0.116-0.138-0.233-0.202-0.354
		c-0.55-1.029-0.887-2.162-0.97-3.33c-0.062-0.855,0.01-1.72,0.214-2.554c0.175-0.715,0.446-1.407,0.804-2.051
		c0.693-1.241,1.709-2.298,2.925-3.035c0.658-0.401,1.375-0.709,2.119-0.909c0.891-0.241,1.823-0.33,2.745-0.264
		c1.028,0.071,2.039,0.34,2.967,0.784c0.966,0.464,1.838,1.119,2.556,1.915c0.731,0.81,1.3,1.765,1.659,2.795
		c0.327,0.938,0.483,1.933,0.459,2.924c-0.019,0.793-0.152,1.584-0.396,2.34c-0.237,0.737-0.581,1.441-1.016,2.084
		c-0.816,1.204-1.952,2.186-3.262,2.813c-0.689,0.331-1.427,0.564-2.182,0.692c-0.909,0.153-1.845,0.153-2.754,0
		c-1.162-0.196-2.262-0.646-3.24-1.3l-0.03-0.021l-5.958,5.965l-0.061,0.055c-0.068,0.049-0.132,0.092-0.21,0.122
		c-0.205,0.078-0.436,0.066-0.632-0.033c-0.074-0.039-0.134-0.087-0.196-0.144l-1.055-1.056c-0.074-0.082-0.136-0.166-0.176-0.271
		c-0.026-0.067-0.027-0.086-0.042-0.158C9.389,28.827,9.389,28.827,9.389,28.747z"/>
</g>
</svg>
