<?xml version="1.0" encoding="utf-8"?>
<!-- Generator: Adobe Illustrator 16.0.0, SVG Export Plug-In . SVG Version: 6.00 Build 0)  -->
<!DOCTYPE svg PUBLIC "-//W3C//DTD SVG 1.1//EN" "http://www.w3.org/Graphics/SVG/1.1/DTD/svg11.dtd">
<svg version="1.1" id="Layer_1" xmlns="http://www.w3.org/2000/svg" xmlns:xlink="http://www.w3.org/1999/xlink" x="0px" y="0px"
	 width="40px" height="40px" viewBox="0 0 40 40" enable-background="new 0 0 40 40" xml:space="preserve">
<circle fill="#6690A0" cx="20" cy="20" r="20"/>
<g>
	<polygon fill="#FFFFFF" points="22.456,16.089 25.744,12.805 23.177,10.237 29.763,10.237 29.763,16.823 27.195,14.257 
		23.912,17.544 	"/>
	<polygon fill="#FFFFFF" points="22.455,23.911 25.743,27.194 23.176,29.763 29.762,29.763 29.762,23.176 27.195,25.743 
		23.911,22.455 	"/>
	<polygon fill="#FFFFFF" points="17.544,23.911 14.256,27.195 16.823,29.763 10.237,29.763 10.237,23.177 12.804,25.743 
		16.088,22.456 	"/>
	<polygon fill="#FFFFFF" points="17.544,16.089 14.256,12.805 16.823,10.237 10.237,10.237 10.237,16.823 12.804,14.257 
		16.088,17.544 	"/>
</g>
</svg>
