<?xml version="1.0" encoding="utf-8"?>
<!-- Generator: Adobe Illustrator 16.0.0, SVG Export Plug-In . SVG Version: 6.00 Build 0)  -->
<!DOCTYPE svg PUBLIC "-//W3C//DTD SVG 1.1//EN" "http://www.w3.org/Graphics/SVG/1.1/DTD/svg11.dtd">
<svg version="1.1" id="Layer_1" xmlns="http://www.w3.org/2000/svg" xmlns:xlink="http://www.w3.org/1999/xlink" x="0px" y="0px"
	 width="40px" height="40px" viewBox="0 0 40 40" enable-background="new 0 0 40 40" xml:space="preserve">
<circle fill="#C85F5D" cx="20" cy="20" r="20"/>
<path fill="#FFFFFF" d="M11.838,26.608c1.185-1.195,3.281-0.466,3.276,1.129c0.084,1.467-1.68,2.804-2.991,1.967
	C11.02,29.115,11.027,27.426,11.838,26.608z M24.887,27.667c0-1.595,2.098-2.318,3.28-1.121c0.809,0.819,0.813,2.51-0.292,3.094
	C26.561,30.474,24.8,29.134,24.887,27.667z M12.144,30.721c1.39,0.509,3.046-0.317,3.54-1.716c0.716-1.6,1.084-3.713,3.4-5.525
	l0.973-0.763l0.869,0.684c2.313,1.817,2.675,3.932,3.387,5.532c0.492,1.4,2.146,2.23,3.537,1.726
	c1.405-0.415,2.036-2.102,1.652-3.447c-0.288-1.373-1.685-2.514-3.055-2.199c-1.427,0.326-1.169,0.793-1.709,0.947
	c-0.691,0.197-1.127-1.881-3.16-4.727l-0.06-0.084l5.495-7.84c0.688-1.135,1.101-2.646,0.208-4.083l-7.182,9.88L12.82,9.128
	c-0.895,1.437-0.486,2.947,0.2,4.083l5.535,7.937l-0.118,0.162c-2.04,2.841-2.48,4.918-3.17,4.72
	c-0.541-0.155-0.28-0.623-1.707-0.952c-1.371-0.317-2.769,0.82-3.06,2.192C10.112,28.614,10.74,30.304,12.144,30.721z"/>
</svg>
