<?xml version="1.0" encoding="utf-8"?>
<!-- Generator: Adobe Illustrator 16.0.0, SVG Export Plug-In . SVG Version: 6.00 Build 0)  -->
<!DOCTYPE svg PUBLIC "-//W3C//DTD SVG 1.1//EN" "http://www.w3.org/Graphics/SVG/1.1/DTD/svg11.dtd">
<svg version="1.1" id="Layer_1" xmlns="http://www.w3.org/2000/svg" xmlns:xlink="http://www.w3.org/1999/xlink" x="0px" y="0px"
	 width="40px" height="40px" viewBox="0 0 40 40" enable-background="new 0 0 40 40" xml:space="preserve">
<circle fill="#58AB09" cx="20" cy="20" r="20"/>
<g>
	<path fill="#FFFFFF" d="M13.12,28.497h-2.273c-0.108,0-0.188-0.081-0.188-0.189v-6.521c0-0.109,0.081-0.19,0.189-0.19h2.301
		c0.108,0,0.189,0.081,0.189,0.19v6.521C13.31,28.416,13.229,28.497,13.12,28.497z"/>
	<path fill="#FFFFFF" d="M18.208,28.497h-2.3c-0.109,0-0.19-0.081-0.19-0.19V17.348c0-0.108,0.081-0.189,0.19-0.189h2.3
		c0.108,0,0.19,0.081,0.19,0.189v10.96C18.397,28.416,18.316,28.497,18.208,28.497z"/>
	<path fill="#FFFFFF" d="M23.268,28.497h-2.3c-0.109,0-0.19-0.081-0.19-0.19V14.398c0-0.109,0.081-0.19,0.19-0.19h2.3
		c0.108,0,0.189,0.081,0.189,0.19v13.909C23.458,28.416,23.376,28.497,23.268,28.497z"/>
	<path fill="#FFFFFF" d="M29.547,11.827l-2.22-2.219c-0.081-0.081-0.189-0.081-0.271,0l-2.219,2.219
		c-0.108,0.108-0.027,0.325,0.135,0.325h0.703c0.109,0,0.189,0.081,0.189,0.189v15.966c0,0.108,0.082,0.19,0.19,0.19h2.301
		c0.108,0,0.19-0.082,0.19-0.19V12.342c0-0.108,0.081-0.189,0.189-0.189h0.703C29.574,12.152,29.655,11.962,29.547,11.827z"/>
</g>
</svg>
