<?xml version="1.0" encoding="utf-8"?>
<!-- Generator: Adobe Illustrator 16.0.0, SVG Export Plug-In . SVG Version: 6.00 Build 0)  -->
<!DOCTYPE svg PUBLIC "-//W3C//DTD SVG 1.1//EN" "http://www.w3.org/Graphics/SVG/1.1/DTD/svg11.dtd">
<svg version="1.1" id="Layer_1" xmlns="http://www.w3.org/2000/svg" xmlns:xlink="http://www.w3.org/1999/xlink" x="0px" y="0px"
	 width="40px" height="40px" viewBox="0 0 40 40" enable-background="new 0 0 40 40" xml:space="preserve">
<path fill="#FB9D48" d="M20,0C9,0,0,9,0,20s9,20,20,20s20-9,20-20S31,0,20,0z"/>
<path fill="#FFFFFF" d="M28.984,29.129c-0.63-0.788-1.758-2.613-2.17-3.592l-0.411-0.979c0,0-1.227-2.982-1.764-3.757
	c-0.539-0.777-1.838-2.771-2.105-3.129c-0.165-0.22-0.389-0.188-0.54-0.133L19.62,13.15c0.1-0.05,0.155-0.079,0.155-0.079
	s-0.237-1.542,0.374-2.112c0.593-0.553,1.124-0.861,3.133-0.25c0,0,2.112,0.671,2.531,0.809c0.671,0.222,1.061-0.266,0.316-0.782
	c0,0-3.688-2.399-5.658-2.407c-1.971-0.007-3.169,0.212-4.443,0.819c-1.273,0.607-1.034,1.381-2.017,1.878
	c-0.983,0.499-1.955,0.254-2.475,0.519c-0.195,0.099-0.389,0.215-0.542,0.345c-0.252,0.218-0.392,0.479-0.235,0.787
	c0.251,0.493,1.019,2.006,1.019,2.006s0.19,0.458,0.63,0.43c0.029,0.003,0.061,0.003,0.093,0.002
	c0.097-0.006,0.208-0.035,0.333-0.099c0.698-0.354,0.334-0.169,0.698-0.354c0.364-0.185,0.47-0.952,0.956-1.197
	c0.252-0.128,0.722-0.412,1.314-0.412c0.542,0.025,1.178,0.291,1.839,1.1c0.014-0.006,0.03-0.014,0.043-0.022
	c0.003,0.006,0.007,0.009,0.012,0.015c0.011-0.006,0.02-0.009,0.028-0.015l2.19,4.532c-0.17,0.156-0.31,0.374-0.21,0.626
	c0.202,0.51,0.939,2.752,1.33,3.523s2.29,3.945,2.546,4.449c0.256,0.505,1.516,3.153,1.666,3.79c0.15,0.636,0.715,0.784,1.461,0.445
	c0.748-0.339,1.668-0.728,2.078-1.055C29.194,30.112,29.613,29.918,28.984,29.129z"/>
</svg>
